<?xml version="1.0" encoding="UTF-8" standalone="no"?>
<!-- Created with Inkscape (http://www.inkscape.org/) -->

<svg
   xmlns:dc="http://purl.org/dc/elements/1.1/"
   xmlns:cc="http://creativecommons.org/ns#"
   xmlns:rdf="http://www.w3.org/1999/02/22-rdf-syntax-ns#"
   xmlns:svg="http://www.w3.org/2000/svg"
   xmlns="http://www.w3.org/2000/svg"
   xmlns:sodipodi="http://sodipodi.sourceforge.net/DTD/sodipodi-0.dtd"
   xmlns:inkscape="http://www.inkscape.org/namespaces/inkscape"
   width="210mm"
   height="297mm"
   viewBox="0 0 744.09448819 1052.3622047"
   id="svg5160"
   version="1.1"
   inkscape:version="0.91 r13725"
   sodipodi:docname="cardeco_03.svg">
  <defs
     id="defs5162" />
  <sodipodi:namedview
     id="base"
     pagecolor="#ffffff"
     bordercolor="#666666"
     borderopacity="1.0"
     inkscape:pageopacity="0.0"
     inkscape:pageshadow="2"
     inkscape:zoom="0.35"
     inkscape:cx="-109.28571"
     inkscape:cy="520"
     inkscape:document-units="px"
     inkscape:current-layer="layer1"
     showgrid="false"
     inkscape:window-width="1366"
     inkscape:window-height="714"
     inkscape:window-x="0"
     inkscape:window-y="0"
     inkscape:window-maximized="1" />
  <metadata
     id="metadata5165">
    <rdf:RDF>
      <cc:Work
         rdf:about="">
        <dc:format>image/svg+xml</dc:format>
        <dc:type
           rdf:resource="http://purl.org/dc/dcmitype/StillImage" />
        <dc:title></dc:title>
      </cc:Work>
    </rdf:RDF>
  </metadata>
  <g
     inkscape:label="Layer 1"
     inkscape:groupmode="layer"
     id="layer1">
    <g
       id="g5141"
       transform="matrix(1.9601967,0,0,1.9601967,-3977.111,-603.80323)">
      <path
         inkscape:connector-curvature="0"
         id="path4797"
         d="m 2150.9348,739.2662 c 0,-20.60331 0.4705,-20.09895 -44.3787,-47.56966 -26.7663,-16.39467 -29.5847,-19.22276 -39.5195,-39.65377 -4.6838,-9.6322 -11.1529,-23.67679 -14.3758,-31.21031 -5.8292,-13.62564 -5.8584,-13.79831 -5.5619,-32.98138 0.3396,-21.97532 2.7973,-46.13732 4.9076,-48.24764 2.5571,-2.55711 8.1406,0.60408 10.3325,5.85 1.7676,4.23045 6.7675,38.73425 6.8174,47.04563 0.01,1.28371 -1.548,3.01924 -3.4571,3.85684 -6.5164,2.85889 -5.3539,9.53099 3.7861,21.72956 4.4935,5.99715 10.3164,13.97032 12.9399,17.71815 2.6234,3.74784 7.1359,8.13004 10.0277,9.73838 l 5.2578,2.92419 -4.8056,-5.23828 c -7.5454,-8.22479 -28.5113,-38.73239 -27.8949,-40.59006 0.3055,-0.92048 2.4204,-2.33271 4.6998,-3.13833 6.49,-2.29361 19.2268,4.7932 30.771,17.12134 25.9793,27.7434 23.575,25.99369 38.6087,28.09675 26.9012,3.76327 38.082,9.3995 53.1246,26.77988 8.2528,9.53536 12.2033,16.21391 15.9048,26.88814 2.825,8.14643 3.0268,11.24551 2.0691,31.78181 l -1.0611,22.75519 -29.0962,0 -29.0962,0 0,-13.65643 z"
         style="fill:#00b050;fill-opacity:1" />
      <path
         inkscape:connector-curvature="0"
         id="path4795"
         d="m 2228.9838,730.16744 c -0.9576,-20.5363 -0.7559,-23.63538 2.0691,-31.78181 3.7015,-10.67423 7.652,-17.35278 15.9048,-26.88814 15.0426,-17.38038 26.2234,-23.01661 53.1247,-26.77988 15.017,-2.10076 12.5952,-0.34616 38.2935,-27.74377 11.4982,-12.25861 24.7198,-19.72386 31.0013,-17.50415 2.3261,0.82202 4.4791,2.24768 4.7846,3.16816 0.6164,1.85767 -20.3495,32.36527 -27.8949,40.59006 l -4.8056,5.23828 5.1955,-2.92419 c 2.8575,-1.60834 6.1764,-4.31266 7.3753,-6.00961 1.1988,-1.69702 7.0466,-9.68065 12.995,-17.74138 8.5972,-11.65021 10.7231,-15.605 10.3661,-19.28405 -0.2964,-3.05412 -1.6298,-5.14612 -3.9203,-6.15105 -1.9092,-0.8376 -3.4649,-2.57313 -3.4572,-3.85684 0.05,-8.31138 5.0499,-42.81518 6.8175,-47.04563 2.1918,-5.24592 7.7753,-8.40711 10.3324,-5.85 2.1103,2.11032 4.568,26.27232 4.9076,48.24764 0.2965,19.18307 0.2674,19.35574 -5.5619,32.98138 -3.2229,7.53352 -9.692,21.57811 -14.3757,31.21031 -9.9349,20.43101 -12.7533,23.2591 -39.5196,39.65377 -44.8492,27.47071 -44.3787,26.96635 -44.3787,47.56966 l 0,13.65643 -29.0962,0 -29.0962,0 -1.0611,-22.75519 z"
         style="fill:#00b050;fill-opacity:1" />
      <path
         inkscape:connector-curvature="0"
         id="path4810"
         d="m 2152.2625,640.92829 c -4.3436,-1.55996 -7.4778,-4.73777 -9.3117,-9.44142 -4.7904,-12.28672 -23.6081,-65.48221 -23.6056,-66.73023 0,-0.8865 0.2596,-2.5347 0.5729,-3.66258 1.2723,-4.57972 1.7972,-4.85027 50.1844,-25.86614 l 45.2493,-19.65299 6.3813,0.0371 6.3814,0.0371 44.9592,19.61708 c 32.2401,14.06729 45.4907,20.11839 46.8375,21.38896 2.3958,2.26015 3.8832,6.08441 3.4811,8.95005 -0.5728,4.08175 -24.1696,68.16243 -25.9034,70.34429 -0.8874,1.11668 -2.8727,2.81355 -4.4118,3.77076 l -2.7985,1.74036 -67.9197,0.12443 c -55.7309,0.10211 -68.3103,-0.0156 -70.0964,-0.65721 z m 2.5828,-108.35587 c -0.5145,-0.51445 -0.6961,-5.9061 -0.6961,-20.66029 0,-19.18878 0.048,-20.04813 1.2149,-22.12581 2.4775,-4.40809 -2.7192,-4.08753 66.269,-4.08753 l 61.7938,0 1.8057,1.51937 c 3.5071,2.95098 3.5044,2.93228 3.5044,24.46728 0,18.31244 -0.073,19.7289 -1.0609,20.62304 -1.9449,1.76017 -1.9539,1.75735 -20.9837,-6.59121 -24.8558,-10.90456 -35.8911,-15.60226 -37.9978,-16.17563 -3.2413,-0.88227 -11.6695,-0.78276 -14.7931,0.1746 -1.4358,0.44002 -7.179,2.88197 -12.7627,5.42645 -36.5115,16.63858 -44.1926,19.53056 -46.2935,17.42973 z m 105.9299,-34.80714 c 0.8993,-0.89926 0.8993,-4.08984 0,-4.98903 -1.0066,-1.00663 -77.6577,-1.00663 -78.6643,0 -0.3829,0.38282 -0.6961,1.50536 -0.6961,2.49448 0,0.98912 0.3132,2.11166 0.6961,2.49455 1.0066,1.00656 77.6577,1.00656 78.6643,0 z m -78.1589,-20.04404 c -1.0941,-0.55793 -2.5299,-1.75067 -3.1907,-2.6506 -1.1168,-1.52093 -1.2128,-2.54241 -1.3621,-14.50294 -0.1803,-14.44514 0.084,-15.69101 3.8722,-18.22132 l 1.9712,-1.31688 37.5361,0 37.5363,0 1.9712,1.31688 c 3.7877,2.53031 4.0524,3.77618 3.8721,18.22132 -0.1493,11.96053 -0.2452,12.98201 -1.3621,14.50294 -2.7832,3.79028 -1.3455,3.66488 -42.0175,3.66488 -33.9257,0 -36.9948,-0.0802 -38.8267,-1.01428 z m 17.7264,-10.06791 c 5.6828,-5.30862 3.1131,-14.49716 -4.3071,-15.40073 -2.7685,-0.3371 -5.7538,1.18836 -7.5541,3.86003 -1.1415,1.69398 -1.3295,2.58323 -1.1347,5.36672 0.1898,2.71412 0.551,3.67193 1.9367,5.13632 2.2647,2.39334 3.4922,2.86787 6.7983,2.62775 1.9323,-0.14032 3.2256,-0.62293 4.2609,-1.59009 z m 24.9846,0.66738 c 5.7525,-3.5075 5.4182,-11.92982 -0.6,-15.12247 -3.1246,-1.65754 -5.9392,-1.25595 -8.7997,1.25566 -3.3772,2.96522 -3.8622,7.15279 -1.3184,11.38502 2.1517,3.58006 7.0549,4.71537 10.7181,2.48179 z m 26.1764,-0.043 c 2.6562,-1.6194 4.3933,-5.62465 3.8456,-8.86665 -0.5386,-3.18745 -3.7829,-6.51679 -6.9249,-7.10625 -6.6827,-1.25366 -12.0129,7.53151 -8.1482,13.42975 2.3458,3.58006 7.5816,4.76604 11.2275,2.54315 z"
         style="fill:#00b050;fill-opacity:1" />
    </g>
  </g>
</svg>
