<?xml version="1.0" encoding="UTF-8" standalone="no"?>
<!-- Created with Inkscape (http://www.inkscape.org/) -->

<svg
   xmlns:dc="http://purl.org/dc/elements/1.1/"
   xmlns:cc="http://creativecommons.org/ns#"
   xmlns:rdf="http://www.w3.org/1999/02/22-rdf-syntax-ns#"
   xmlns:svg="http://www.w3.org/2000/svg"
   xmlns="http://www.w3.org/2000/svg"
   xmlns:sodipodi="http://sodipodi.sourceforge.net/DTD/sodipodi-0.dtd"
   xmlns:inkscape="http://www.inkscape.org/namespaces/inkscape"
   width="210mm"
   height="297mm"
   viewBox="0 0 744.09448819 1052.3622047"
   id="svg5160"
   version="1.1"
   inkscape:version="0.91 r13725"
   sodipodi:docname="cardeco_04.svg">
  <defs
     id="defs5162" />
  <sodipodi:namedview
     id="base"
     pagecolor="#ffffff"
     bordercolor="#666666"
     borderopacity="1.0"
     inkscape:pageopacity="0.0"
     inkscape:pageshadow="2"
     inkscape:zoom="0.35"
     inkscape:cx="-109.28571"
     inkscape:cy="520"
     inkscape:document-units="px"
     inkscape:current-layer="layer1"
     showgrid="false"
     inkscape:window-width="1366"
     inkscape:window-height="714"
     inkscape:window-x="0"
     inkscape:window-y="0"
     inkscape:window-maximized="1" />
  <metadata
     id="metadata5165">
    <rdf:RDF>
      <cc:Work
         rdf:about="">
        <dc:format>image/svg+xml</dc:format>
        <dc:type
           rdf:resource="http://purl.org/dc/dcmitype/StillImage" />
        <dc:title></dc:title>
      </cc:Work>
    </rdf:RDF>
  </metadata>
  <g
     inkscape:label="Layer 1"
     inkscape:groupmode="layer"
     id="layer1">
    <g
       id="g5129"
       transform="matrix(2.2123635,0,0,2.2123635,-3861.7369,-45.849364)">
      <path
         id="path4879"
         d="m 1912.8997,412.64087 c -3.4521,-1.93189 -3.9102,-10.57687 -1.3611,-25.68399 0.8748,-5.18455 0.8301,-9.6529 -0.1065,-10.63796 -0.8883,-0.93417 -1.615,-4.2828 -1.615,-7.44138 0,-5.38023 -0.4799,-5.81705 -7.5986,-6.91707 -16.9356,-2.617 -37.1752,-11.0131 -47.5091,-19.70851 l -5.5564,-4.67543 -6.7667,4.58696 c -3.7217,2.52282 -10.8275,9.61063 -15.7906,15.75072 -7.3841,9.13525 -9.9831,11.16375 -14.3031,11.16375 -4.6595,0 -5.2793,-0.62202 -5.2793,-5.29852 0,-4.4486 1.9202,-6.74294 11.9706,-14.30313 6.5839,-4.95253 12.0146,-9.88561 12.0683,-10.96237 0.054,-1.07677 1.7067,-3.41398 3.6734,-5.19381 4.4643,-4.04009 4.5119,-6.64416 0.193,-10.55272 -5.843,-5.2878 -16.2419,-28.22305 -19.1109,-42.14972 -1.5147,-7.35284 -3.154,-13.76884 -3.6429,-14.25773 -0.4889,-0.4889 -11.5026,-0.90933 -24.4749,-0.9343 l -23.586,-0.0454 0,-5.36367 0,-5.36368 23.586,-0.0454 c 12.9722,-0.025 23.9859,-0.4454 24.4748,-0.9343 0.4889,-0.48889 2.0817,-6.60938 3.5395,-13.60108 3.2971,-15.8128 9.05,-29.38468 16.7091,-39.41858 6.9044,-9.0453 7.0111,-9.6882 2.3123,-13.9405 -1.9667,-1.7798 -3.5758,-4.1379 -3.5758,-5.2401 0,-1.1022 -5.6806,-6.2552 -12.6237,-11.4509 -10.827,-8.1024 -12.5446,-10.1315 -12.0682,-14.2569 0.463,-4.01 1.4334,-4.8099 5.8347,-4.8099 4.3419,0 6.9383,2.0559 14.6224,11.5787 5.1386,6.3683 10.3695,11.9208 11.6241,12.339 1.2546,0.4182 3.8475,2.2198 5.7622,4.0035 3.6868,3.4349 4.2727,3.2906 12.8964,-3.1765 8.8207,-6.6148 27.971,-14.5636 40.7671,-16.9213 11.6188,-2.1409 11.8523,-2.2941 11.8523,-7.7749 0,-3.0751 0.7267,-6.3553 1.615,-7.2895 0.9366,-0.9851 0.9813,-5.4534 0.1065,-10.638 -2.6839,-15.9059 -2.1319,-23.7911 1.8132,-25.9025 2.8076,-1.5025 4.279,-1.1476 7.1516,1.725 4.2053,4.2054 4.1037,3.2498 1.8097,17.026 -0.9825,5.9 -1.284,15.2845 -0.67,20.8543 l 1.1163,10.1269 10.0668,1.7856 c 14.4658,2.5658 28.9767,8.4183 41.3364,16.6718 l 10.7604,7.1856 5.2904,-4.4516 c 2.9097,-2.4483 5.9505,-4.7296 6.7574,-5.0695 0.8069,-0.3399 5.3087,-5.6464 10.004,-11.7923 8.8892,-11.6355 14.4039,-14.0969 19.0478,-8.5014 3.0918,3.7254 -1.2659,9.982 -12.6477,18.159 -4.904,3.5232 -11.3571,9.9534 -14.3404,14.2894 l -5.4241,7.8836 4.4813,5.3257 c 7.216,8.5758 15.2358,26.62608 18.2267,41.02363 1.5275,7.35284 3.1974,13.78893 3.7109,14.3024 0.5134,0.51346 11.2659,0.77905 23.8943,0.5902 18.702,-0.2797 23.3809,0.16269 25.2255,2.38545 1.6357,1.9709 1.7422,3.55623 0.3833,5.70778 -1.5979,2.52988 -5.4041,2.98265 -25.2493,3.00346 -12.8523,0.0143 -23.7773,0.43392 -24.2776,0.93431 -0.5004,0.50038 -2.1596,6.92576 -3.6871,14.2786 -2.9856,14.37204 -11.0082,32.44494 -18.1922,40.98259 l -4.4466,5.28454 4.7446,7.1696 c 2.6096,3.94329 9.0809,10.44356 14.3808,14.44502 12.1916,9.20473 16.3142,15.06837 13.2176,18.79959 -4.8532,5.84771 -10.2927,3.17544 -20.0345,-9.84236 -5.1512,-6.88338 -10.1393,-12.51524 -11.0847,-12.51524 -0.9454,0 -3.6172,-1.78331 -5.9373,-3.96293 -2.9365,-2.75874 -4.9128,-3.43783 -6.5037,-2.23487 -16.1489,12.21111 -32.1519,19.49682 -49.6362,22.598 l -10.0668,1.78553 -1.1163,10.12698 c -0.614,5.56982 -0.3173,14.95389 0.6592,20.85348 0.9766,5.89958 1.3284,12.13571 0.7817,13.85805 -1.4107,4.44492 -6.4567,6.76129 -10.1843,4.6752 z"
         style="fill:#00b050;fill-opacity:1"
         inkscape:connector-curvature="0" />
      <path
         id="path4877"
         d="m 1909.8171,330.72242 c 0,-1.92041 0.866,-5.39239 1.9245,-7.71552 1.1996,-2.63287 1.357,-6.41387 0.4179,-10.03799 -1.3027,-5.02739 -3.0397,-6.43017 -12.8363,-10.36682 -9.8255,-3.94824 -11.9017,-4.24657 -15.6378,-2.24702 -4.7355,2.53431 -13.7621,17.2031 -12.1707,19.77803 1.4027,2.2696 14.5818,8.8714 23.1053,11.57409 10.7857,3.42004 15.1971,3.13419 15.1971,-0.98477 z"
         style="fill:#ffffff"
         inkscape:connector-curvature="0" />
      <path
         id="path4875"
         d="m 1945.262,328.60134 c 4.3314,-1.85664 10.134,-4.98413 12.8948,-6.94999 l 5.0196,-3.57424 -4.5649,-8.16741 c -6.5603,-11.73779 -10.1985,-12.85254 -23.9334,-7.33334 -13.3084,5.3478 -15.405,8.94777 -12.1776,20.90957 1.194,4.42548 2.5258,8.69684 2.9595,9.49191 1.0135,1.85807 9.7746,-0.0783 19.802,-4.3765 z"
         style="fill:#ffffff"
         inkscape:connector-curvature="0" />
      <path
         id="path4873"
         d="m 1865.8351,302.74709 c 4.5745,-2.55676 9.3844,-6.78065 10.6886,-9.38643 2.1215,-4.23879 1.8352,-5.9109 -2.7178,-15.87541 -5.9256,-12.96825 -9.2352,-14.56332 -22.9329,-11.05271 -10.2209,2.61955 -10.9318,4.63231 -6.2863,17.79907 2.104,5.96348 11.5317,23.14393 12.7093,23.1609 0.122,0.002 3.9646,-2.08869 8.5391,-4.64542 z"
         style="fill:#ffffff"
         inkscape:connector-curvature="0" />
      <path
         id="path4871"
         d="m 1984.0954,290.41074 c 2.2789,-4.9167 4.6711,-11.85334 5.316,-15.41477 1.1037,-6.09438 0.8323,-6.59401 -4.6137,-8.49248 -7.6982,-2.68361 -18.9965,-2.56516 -20.7661,0.21769 -0.7815,1.22918 -3.241,6.6599 -5.4655,12.06827 -3.9544,9.61451 -3.9711,9.9329 -0.7512,14.30313 1.8113,2.45835 6.4358,6.26359 10.2767,8.4561 8.1695,4.66339 8.9234,4.13875 16.0038,-11.13794 z"
         style="fill:#ffffff"
         inkscape:connector-curvature="0" />
      <path
         id="path4869"
         d="m 1924.5116,291.226 c 13.0823,-3.6333 24.5605,-18.21882 24.5605,-31.20941 0,-7.70613 -5.6508,-19.04619 -12.2636,-24.61045 -20.3832,-17.15137 -49.7477,-4.72622 -51.6711,21.86385 -1.4081,19.46701 10.9459,33.69475 30.9373,35.6296 0.9833,0.0951 4.78,-0.65794 8.4369,-1.67359 z"
         style="fill:#ffffff"
         inkscape:connector-curvature="0" />
      <path
         id="path4867"
         d="m 1867.8184,254.17857 c 0.9925,-0.72245 3.7388,-6.0713 6.1027,-11.88633 3.8843,-9.55481 4.0514,-11.01801 1.7349,-15.19708 -1.4097,-2.54336 -5.1521,-5.92579 -8.3163,-7.51653 -3.1642,-1.59072 -6.8628,-3.81316 -8.2191,-4.93874 -1.8653,-1.5481 -2.9064,-1.49688 -4.2746,0.2104 -4.0021,4.99372 -10.1397,18.85708 -12.0807,27.28739 l -2.0582,8.93945 5.5017,2.02155 c 6.4048,2.35335 18.9955,2.98255 21.6096,1.07989 z"
         style="fill:#ffffff"
         inkscape:connector-curvature="0" />
      <path
         id="path4865"
         d="m 1982.201,253.38816 c 5.8174,-1.55593 8.0712,-3.06613 8.0712,-5.40835 0,-5.24639 -6.3771,-21.87696 -10.9943,-28.67184 l -4.2652,-6.27679 -6.9945,3.91575 c -3.847,2.15368 -8.5519,6.00174 -10.4554,8.55125 -3.4477,4.61779 -3.4436,4.67859 1.0775,15.92951 5.716,14.22478 8.9522,15.86764 23.5607,11.96047 z"
         style="fill:#ffffff"
         inkscape:connector-curvature="0" />
      <path
         id="path4863"
         d="m 1896.4079,218.00114 c 3.8575,-1.96668 8.0221,-3.57578 9.2546,-3.57578 5.7366,0 7.3894,-10.90721 3.3866,-22.34861 -2.0608,-5.8904 -3.2384,-7.0613 -6.6777,-6.6397 -6.495,0.7963 -19.5867,5.9039 -26.9409,10.5108 l -6.6742,4.1809 3.7367,7.169 c 3.7882,7.26778 11.0742,14.27917 14.8385,14.27917 1.1345,0 5.2188,-1.6091 9.0764,-3.57578 z"
         style="fill:#ffffff"
         inkscape:connector-curvature="0" />
      <path
         id="path4861"
         d="m 1950.5647,218.77694 c 3.8179,-2.6742 11.1012,-14.79289 11.1012,-18.47149 0,-2.3787 -20.6199,-12.2292 -29.7195,-14.1975 l -7.3708,-1.5943 -2.3253,9.6929 c -3.2815,13.6788 -1.3632,17.7327 10.8093,22.84283 12.1958,5.11987 12.6043,5.16019 17.5051,1.72756 z"
         style="fill:#ffffff"
         inkscape:connector-curvature="0" />
    </g>
  </g>
</svg>
