<?xml version="1.0" encoding="UTF-8" standalone="no"?>
<!-- Created with Inkscape (http://www.inkscape.org/) -->

<svg
   xmlns:dc="http://purl.org/dc/elements/1.1/"
   xmlns:cc="http://creativecommons.org/ns#"
   xmlns:rdf="http://www.w3.org/1999/02/22-rdf-syntax-ns#"
   xmlns:svg="http://www.w3.org/2000/svg"
   xmlns="http://www.w3.org/2000/svg"
   xmlns:sodipodi="http://sodipodi.sourceforge.net/DTD/sodipodi-0.dtd"
   xmlns:inkscape="http://www.inkscape.org/namespaces/inkscape"
   width="210mm"
   height="297mm"
   viewBox="0 0 744.09448819 1052.3622047"
   id="svg5160"
   version="1.1"
   inkscape:version="0.91 r13725"
   sodipodi:docname="cardeco_01.svg">
  <defs
     id="defs5162" />
  <sodipodi:namedview
     id="base"
     pagecolor="#ffffff"
     bordercolor="#666666"
     borderopacity="1.0"
     inkscape:pageopacity="0.0"
     inkscape:pageshadow="2"
     inkscape:zoom="0.35"
     inkscape:cx="-109.28571"
     inkscape:cy="520"
     inkscape:document-units="px"
     inkscape:current-layer="layer1"
     showgrid="false"
     inkscape:window-width="1366"
     inkscape:window-height="714"
     inkscape:window-x="0"
     inkscape:window-y="0"
     inkscape:window-maximized="1" />
  <metadata
     id="metadata5165">
    <rdf:RDF>
      <cc:Work
         rdf:about="">
        <dc:format>image/svg+xml</dc:format>
        <dc:type
           rdf:resource="http://purl.org/dc/dcmitype/StillImage" />
        <dc:title></dc:title>
      </cc:Work>
    </rdf:RDF>
  </metadata>
  <g
     inkscape:label="Layer 1"
     inkscape:groupmode="layer"
     id="layer1">
    <g
       id="g5125"
       transform="matrix(2.7277651,0,0,2.7277651,-4113.6123,-143.87625)">
      <path
         id="path4883"
         d="m 1635.3757,416.11592 c -5.6298,-5.59417 -14.266,-11.43262 -23.3267,-15.76981 -23.7947,-11.39014 -42.9219,-27.48801 -50.9169,-42.85274 l -2.3067,-4.43304 -1.8011,4.03649 c -4.4393,9.94861 -9.9,-2.86025 -10.0483,-23.56925 -0.096,-13.41589 2.6379,-27.91975 5.2628,-27.91975 0.672,0 2.1584,3.01707 3.3031,6.70459 2.9913,9.6362 13.672,23.31643 20.8921,26.75944 8.3837,3.99794 7.7949,5.86958 -1.8466,5.86958 -4.425,0 -8.0455,0.71094 -8.0455,1.57985 0,3.05104 14.794,14.90333 23.887,19.13716 10.4128,4.84835 20.4853,5.49789 27.6669,1.78416 10.1418,-5.24453 10.1283,-5.1212 10.1283,-92.94448 l 0,-80.63347 -21.9016,-0.502 -21.9017,-0.5021 0,-8.8844 0,-8.8844 22.3487,0 22.3486,0 0,-8.8177 c 0,-7.6991 -0.661,-9.2884 -5.2102,-12.5277 -7.9686,-5.6742 -13.28,-18.1487 -12.2577,-28.7888 2.438,-25.372397 30.1245,-38.379997 51.5342,-24.2117 17.1713,11.3634 18.7015,39.8949 2.8101,52.3951 -3.9722,3.1245 -4.6944,5.097 -4.6944,12.8217 l 0,9.1291 23.2426,0 23.2426,0 0,8.9395 0,8.9394 -23.006,0 -23.0061,0 -0.8373,78.22026 c -0.4605,43.02114 -0.1412,80.78333 0.7097,83.91597 3.8461,14.16017 19.254,18.60755 36.5558,10.55156 9.093,-4.23383 23.887,-16.08612 23.887,-19.13716 0,-0.86891 -3.8216,-1.62205 -8.4924,-1.67363 l -8.4925,-0.0937 4.4697,-2.95261 c 9.3752,-6.19308 19.5461,-18.3887 22.6692,-27.18194 1.7603,-4.95634 3.689,-9.01151 4.2858,-9.01151 2.5016,0 5.22,14.80608 5.1261,27.91975 -0.1483,20.73562 -5.6094,33.5169 -10.0595,23.54391 -1.7893,-4.00986 -1.8515,-3.98626 -4.8666,1.84427 -7.3925,14.29544 -27.9765,31.30253 -49.8129,41.15679 -7.3683,3.32514 -16.1046,9.26409 -22.3487,15.1927 l -10.2514,9.73355 -8.9395,-8.88287 z"
         style="fill:#00b050;fill-opacity:1"
         inkscape:connector-curvature="0" />
      <path
         id="path4881"
         d="m 1654.2071,147.34915 c 7.055,-3.6483 11.3219,-12.2375 10.031,-20.1924 -2.0101,-12.3871 -16.6274,-21.4371 -26.4393,-16.3693 -11.7364,6.0618 -15.8807,14.8833 -12.2129,25.9968 3.7667,11.413 17.3121,16.4131 28.6212,10.5649 z"
         style="fill:#ffffff"
         inkscape:connector-curvature="0" />
    </g>
  </g>
</svg>
