<?xml version="1.0" encoding="UTF-8" standalone="no"?>
<!-- Created with Inkscape (http://www.inkscape.org/) -->

<svg
   xmlns:dc="http://purl.org/dc/elements/1.1/"
   xmlns:cc="http://creativecommons.org/ns#"
   xmlns:rdf="http://www.w3.org/1999/02/22-rdf-syntax-ns#"
   xmlns:svg="http://www.w3.org/2000/svg"
   xmlns="http://www.w3.org/2000/svg"
   xmlns:sodipodi="http://sodipodi.sourceforge.net/DTD/sodipodi-0.dtd"
   xmlns:inkscape="http://www.inkscape.org/namespaces/inkscape"
   width="210mm"
   height="297mm"
   viewBox="0 0 744.09448819 1052.3622047"
   id="svg5160"
   version="1.1"
   inkscape:version="0.91 r13725"
   sodipodi:docname="cardeco_05.svg">
  <defs
     id="defs5162" />
  <sodipodi:namedview
     id="base"
     pagecolor="#ffffff"
     bordercolor="#666666"
     borderopacity="1.0"
     inkscape:pageopacity="0.0"
     inkscape:pageshadow="2"
     inkscape:zoom="0.35"
     inkscape:cx="-109.28571"
     inkscape:cy="520"
     inkscape:document-units="px"
     inkscape:current-layer="layer1"
     showgrid="false"
     inkscape:window-width="1366"
     inkscape:window-height="714"
     inkscape:window-x="0"
     inkscape:window-y="0"
     inkscape:window-maximized="1" />
  <metadata
     id="metadata5165">
    <rdf:RDF>
      <cc:Work
         rdf:about="">
        <dc:format>image/svg+xml</dc:format>
        <dc:type
           rdf:resource="http://purl.org/dc/dcmitype/StillImage" />
        <dc:title></dc:title>
      </cc:Work>
    </rdf:RDF>
  </metadata>
  <g
     inkscape:label="Layer 1"
     inkscape:groupmode="layer"
     id="layer1">
    <g
       id="g5152"
       transform="matrix(1.3758992,0,0,1.3758992,-3108.7247,-524.29916)">
      <path
         inkscape:connector-curvature="0"
         id="path4885"
         d="m 2393.3209,1101.1416 0,-15.0841 18.8552,0 c 18.2538,0 18.8549,-0.3458 18.8549,-10.8416 0,-5.9629 1.0607,-16.1447 2.3571,-22.6261 l 2.3568,-11.7844 93.8039,0 93.8039,0 0,10.8416 c 0,5.963 1.0605,16.1447 2.3568,22.6261 2.2531,11.2647 3.1678,11.7844 20.7406,11.7844 l 18.3837,0 0,15.0841 0,15.084 -135.7564,0 -135.7565,0 0,-15.084 z"
         style="fill:#00b050;fill-opacity:1" />
      <path
         inkscape:connector-curvature="0"
         id="path4859"
         d="m 2438.5731,952.11836 0,-17.03782 89.5615,1.01102 89.5617,1.011 1.1594,16.0268 1.1596,16.02681 -90.7211,0 -90.7211,0 0,-17.03781 z"
         style="fill:#00b050;fill-opacity:1" />
      <path
         inkscape:connector-curvature="0"
         id="path4857"
         d="m 2444.7075,860.56975 c -1.0192,-1.6489 -0.896,-10.13369 0.274,-18.85504 l 2.1267,-15.857 82.4657,0 82.4657,0 0,18.85505 0,18.85507 -82.7397,0 c -45.5067,0 -83.5735,-1.34913 -84.5924,-2.99808 z"
         style="fill:#00b050;fill-opacity:1" />
      <path
         inkscape:connector-curvature="0"
         id="path4855"
         d="m 2449.8862,735.35341 0,-18.85505 77.3058,0 77.3056,0 0.051,10.37028 c 0.029,5.70365 1.0748,14.18843 2.3254,18.85505 l 2.2739,8.48478 -79.6312,0 -79.631,0 0,-18.85506 z"
         style="fill:#00b050;fill-opacity:1" />
      <path
         sodipodi:nodetypes="csssscsssssssccccc"
         inkscape:connector-curvature="0"
         id="path4853"
         d="m 2455.1621,622.22303 c -0.1687,-12.44426 4.8061,-22.24933 6.6829,-22.24933 1.8837,0 -0.4964,-20.2248 -0.9033,-44.6862 -1.1379,-68.38348 9.3482,-92.53208 45.8016,-105.47917 18.3313,-6.51066 18.5717,-6.80574 19.2429,-23.62024 l 1.2447,-16.83897 1.7713,16.91391 c 1.6816,16.05798 1.3742,18.03946 12.0875,20.18219 18.8965,3.77926 36.6903,17.07077 45.2523,33.80218 7.1498,13.97131 7.9277,21.19867 7.2654,67.49825 -0.6604,46.18463 -3.5837,47.78994 2.0169,47.78994 5.0306,0 5.3904,7.54672 5.1994,17.54064 -0.1263,6.60872 -0.097,14.96839 -0.097,20.93129 l 0,10.84169 -72.6287,0 -72.6284,0 -0.3073,-22.62618 z"
         style="fill:#00b050;fill-opacity:1" />
      <circle
         r="42.87851"
         cy="519.69653"
         cx="2526.4822"
         id="path4913"
         style="opacity:1;fill:#ffffff;fill-opacity:1;stroke:none;stroke-width:2.79999995;stroke-linecap:round;stroke-linejoin:round;stroke-miterlimit:4;stroke-dasharray:none;stroke-opacity:1" />
    </g>
  </g>
</svg>
