<svg xmlns:osb="http://www.openswatchbook.org/uri/2009/osb" xmlns="http://www.w3.org/2000/svg" xmlns:xlink="http://www.w3.org/1999/xlink" width="584.407" height="761.355" viewBox="0 0 547.882 713.771"><defs><linearGradient id="a" osb:paint="solid"><stop offset="0" stop-opacity="0"/></linearGradient><linearGradient xlink:href="#a" id="b" x1="279.953" y1="632.468" x2="465.15" y2="632.468" gradientUnits="userSpaceOnUse"/></defs><g fill="#dfdfdf" fill-rule="evenodd"><path d="M320.62 196.395l-.824-60.218 61.89-.992L282.09 0 174.18 135.3l73.374.947-2.99 60.194-128.951-.161 28.589 38.929 30.86 72.941 23.846-60.317h155l27.175 59.554 26.776-71.367 30.545-39.223zm-74.297 217.27l64.229-1.25-32.187-78.172z"/><path d="M85.723 523.573l103.933 60.006 44.508-127.334h94.568l51.424 110.809 86.73-56.081-31.575-54.687 112.571-64.993v173.939L277.056 713.77 4.933 553.138 0 403.156l107.593 72.58z"/><path d="M280.615 718.334l54.538-171.348 63.957-1.55 65.353 162.796-96.974 22.224z" stroke="url(#b)" transform="translate(-88.686 -133.863)"/></g></svg>