<svg xmlns="http://www.w3.org/2000/svg" width="210mm" height="297mm" viewBox="0 0 744.094 1052.362"><path d="M347.308 991.19c-15.356-15.26-38.914-31.185-63.63-43.016-64.906-31.07-117.08-74.98-138.889-116.892l-6.292-12.093-4.913 11.011c-12.11 27.137-27.005-7.802-27.41-64.291-.261-36.596 7.196-76.159 14.357-76.159 1.833 0 5.887 8.23 9.01 18.289 8.16 26.285 37.294 63.601 56.988 72.993 22.87 10.906 21.263 16.01-5.037 16.01-12.07 0-21.946 1.94-21.946 4.31 0 8.323 40.355 40.653 65.158 52.202 28.404 13.225 55.88 14.997 75.469 4.867 27.664-14.306 27.628-13.97 27.628-253.53V384.94l-59.743-1.37-59.743-1.369v-48.469H330.24V309.68c0-21.001-1.803-25.336-14.212-34.172-21.736-15.478-36.225-49.506-33.436-78.53 6.65-69.21 82.172-104.691 140.573-66.043 46.84 30.996 51.013 108.824 7.665 142.921-10.835 8.523-12.805 13.904-12.805 34.975v24.902h126.8v48.769H419.316L417.03 595.87c-1.256 117.351-.385 220.358 1.936 228.903 10.49 38.626 52.52 50.757 99.715 28.782 24.804-11.549 65.158-43.88 65.158-52.202 0-2.37-10.424-4.424-23.165-4.565l-23.165-.255 12.192-8.054c25.573-16.894 53.317-50.16 61.836-74.146 4.802-13.52 10.063-24.582 11.69-24.582 6.824 0 14.24 40.388 13.984 76.159-.405 56.562-15.302 91.426-27.44 64.222-4.881-10.938-5.05-10.874-13.275 5.03-20.165 38.995-76.314 85.387-135.878 112.267-20.1 9.07-43.93 25.27-60.962 41.442l-27.964 26.55-24.385-24.23z" fill="#00b050"/><path d="M398.676 258.058c19.244-9.952 30.884-33.381 27.362-55.08-5.483-33.79-45.355-58.476-72.12-44.652-32.014 16.535-43.319 40.598-33.314 70.913 10.275 31.132 47.224 44.771 78.072 28.819z" fill="#fff"/></svg>