<svg xmlns="http://www.w3.org/2000/svg" width="210mm" height="297mm" viewBox="0 0 744.094 1052.362"><g transform="translate(-3108.725 -524.3) scale(1.3759)"><path d="M2393.32 1101.142v-15.085h18.856c18.254 0 18.855-.345 18.855-10.841 0-5.963 1.06-16.145 2.357-22.626l2.357-11.785h187.608v10.842c0 5.963 1.06 16.145 2.356 22.626 2.254 11.265 3.168 11.784 20.741 11.784h18.384v30.169H2393.32v-15.084zm45.253-149.024v-17.037l89.562 1.01 89.561 1.012 1.16 16.026 1.16 16.027h-181.442v-17.038zm6.134-91.548c-1.019-1.65-.895-10.134.275-18.855l2.126-15.857h164.932v37.71h-82.74c-45.507 0-83.574-1.35-84.593-2.998zm5.179-125.217v-18.855h154.612l.05 10.37c.03 5.704 1.075 14.19 2.326 18.856l2.274 8.484h-159.262v-18.855zm5.276-113.13c-.169-12.444 4.806-22.25 6.683-22.25 1.884 0-.496-20.224-.903-44.685-1.138-68.384 9.348-92.533 45.801-105.48 18.332-6.51 18.572-6.805 19.243-23.62l1.245-16.839 1.771 16.914c1.682 16.058 1.374 18.04 12.088 20.182 18.896 3.78 36.69 17.071 45.252 33.802 7.15 13.972 7.928 21.2 7.265 67.499-.66 46.184-3.583 47.79 2.017 47.79 5.03 0 5.39 7.546 5.2 17.54-.127 6.609-.097 14.969-.097 20.932v10.841H2455.47l-.308-22.626z" fill="#00b050"/><circle r="42.879" cy="519.697" cx="2526.482" fill="#fff"/></g></svg>