<svg xmlns="http://www.w3.org/2000/svg" width="676.713" height="855.674" viewBox="0 0 634.419 802.194"><g fill="none"><path d="M-2191.866-1261.353h4434.282v2662.858h-4434.282z"/><path d="M-991.868-461.356h3314.285v3348.571H-991.868z"/></g><path fill="none" d="M23.506 243.133H460.65v337.143H23.506z"/><path d="M3.834 101.155c105.243-5.964 211.24 1.556 311.372-95.808 74.478 72.38 181.74 98.476 309.377 95.808l5.988 448.984c-57.997 99-156.333 184.01-315.365 247.975C193.646 757.95 88.152 681.064 3.834 555.775z" fill="#00b050" fill-rule="evenodd"/><path d="M133.846 397.895l41.916-31.936 87.823 58.236c68.921-71.707 141.535-139.07 231.533-185.98l23.952 20.664c-102.266 96.434-180.487 192.869-229.538 289.303z" fill="#fff" fill-rule="evenodd"/><path fill="none" d="M186.368 329.119h97.896v117.519h-97.896z"/><path fill="none" d="M161.872 324.32h146.472v120.21H161.872z"/><path fill="none" d="M247.735 385.94h80.812v116.168h-80.812z"/><path fill="none" d="M160.862 314.219h123.402v132.419H160.862z"/><path fill="none" d="M183.085 331.392h125.26V451.6h-125.26z"/><path fill="none" d="M181.065 314.219h130.31v150.513h-130.31z"/><path fill="none" d="M194.45 348.564h76.771v3.03H194.45z"/><path fill="none" d="M33.583 144.514h286.883v363.655H33.583zM324.507 526.35h82.833v103.037h-82.833z"/></svg>