<svg xmlns="http://www.w3.org/2000/svg" width="210mm" height="297mm" viewBox="0 0 744.094 1052.362"><g fill="#00b050"><path d="M239.144 845.304c0-40.387.923-39.398-86.99-93.246-52.468-32.137-57.993-37.68-77.467-77.73-9.18-18.88-21.862-46.41-28.18-61.177-11.425-26.71-11.483-27.048-10.901-64.65.665-43.076 5.483-90.439 9.62-94.575 5.012-5.013 15.957 1.184 20.253 11.467 3.465 8.292 13.266 75.927 13.364 92.218.02 2.517-3.035 5.919-6.777 7.56-12.773 5.605-10.495 18.683 7.421 42.595 8.809 11.755 20.223 27.384 25.365 34.73 5.143 7.347 13.988 15.937 19.656 19.09l10.307 5.732-9.42-10.268c-14.79-16.122-55.888-75.923-54.68-79.565.6-1.804 4.745-4.572 9.213-6.151 12.722-4.496 37.688 9.395 60.317 33.56 50.925 54.383 46.212 50.954 75.68 55.076 52.732 7.377 74.649 18.425 104.135 52.494 16.178 18.691 23.921 31.782 31.177 52.706 5.538 15.969 5.933 22.043 4.056 62.299l-2.08 44.604H239.144v-26.77zm152.992-17.835c-1.877-40.256-1.482-46.33 4.056-62.299 7.255-20.924 14.999-34.015 31.176-52.706 29.487-34.069 51.403-45.117 104.135-52.494 29.436-4.118 24.689-.678 75.063-54.383 22.538-24.03 48.455-38.663 60.768-34.312 4.56 1.612 8.78 4.406 9.38 6.21 1.207 3.642-39.89 63.443-54.68 79.565l-9.42 10.268 10.184-5.732c5.601-3.153 12.107-8.454 14.457-11.78 2.35-3.326 13.813-18.976 25.473-34.777 16.852-22.836 21.02-30.588 20.32-37.8-.582-5.987-3.195-10.087-7.685-12.057-3.743-1.642-6.792-5.044-6.777-7.56.098-16.292 9.899-83.927 13.364-92.22 4.296-10.282 15.24-16.479 20.253-11.466 4.137 4.136 8.954 51.499 9.62 94.575.581 37.602.524 37.94-10.902 64.65-6.318 14.767-18.999 42.297-28.18 61.178-19.474 40.049-24.999 45.592-77.466 77.729-87.913 53.848-86.99 52.86-86.99 93.246v26.77h-114.07l-2.08-44.605z"/><path d="M241.747 652.542c-8.514-3.058-14.658-9.287-18.253-18.507-9.39-24.084-46.276-128.358-46.272-130.804 0-1.738.51-4.969 1.123-7.18 2.494-8.977 3.523-9.507 98.372-50.702l88.697-38.524 12.509.073 12.509.072 88.129 38.454c63.197 27.574 89.17 39.436 91.81 41.926 4.697 4.43 7.612 11.927 6.824 17.544-1.123 8.001-47.377 133.612-50.776 137.889-1.74 2.189-5.63 5.515-8.648 7.391l-5.485 3.412-133.136.244c-109.244.2-133.902-.03-137.403-1.289zm5.063-212.399c-1.009-1.008-1.365-11.577-1.365-40.498 0-37.614.094-39.298 2.382-43.37 4.856-8.641-5.33-8.013 129.9-8.013h121.128l3.54 2.978c6.874 5.785 6.869 5.748 6.869 47.96 0 35.897-.143 38.673-2.08 40.426-3.812 3.45-3.83 3.445-41.132-12.92-48.722-21.375-70.354-30.583-74.483-31.707-6.354-1.73-22.875-1.535-28.998.342-2.814.862-14.072 5.65-25.017 10.637-71.57 32.615-86.626 38.284-90.744 34.165zm207.643-68.228c1.763-1.763 1.763-8.017 0-9.78-1.973-1.973-152.224-1.973-154.197 0-.751.75-1.365 2.951-1.365 4.89 0 1.939.614 4.14 1.365 4.89 1.973 1.973 152.224 1.973 154.197 0zm-153.207-39.29c-2.144-1.094-4.959-3.432-6.254-5.196-2.19-2.982-2.377-4.984-2.67-28.429-.354-28.315.165-30.757 7.59-35.717l3.864-2.582h147.157l3.864 2.582c7.424 4.96 7.943 7.402 7.59 35.717-.293 23.445-.48 25.447-2.67 28.429-5.456 7.43-2.638 7.184-82.363 7.184-66.5 0-72.517-.158-76.108-1.989zm34.747-19.736c11.14-10.406 6.103-28.417-8.442-30.188-5.427-.661-11.279 2.33-14.808 7.566-2.237 3.32-2.606 5.064-2.224 10.52.372 5.32 1.08 7.198 3.796 10.068 4.44 4.692 6.846 5.622 13.326 5.151 3.788-.275 6.323-1.22 8.352-3.117zm48.975 1.308c11.276-6.875 10.621-23.384-1.176-29.643-6.125-3.249-11.642-2.461-17.249 2.462-6.62 5.812-7.57 14.02-2.584 22.317 4.217 7.017 13.829 9.243 21.01 4.864zm51.311-.084c5.207-3.174 8.612-11.025 7.538-17.38-1.056-6.248-7.415-12.774-13.574-13.93-13.1-2.457-23.548 14.763-15.972 26.325 4.598 7.018 14.861 9.342 22.008 4.985z"/></g></svg>