<svg xmlns="http://www.w3.org/2000/svg" width="210mm" height="297mm" viewBox="0 0 744.094 1052.362"><path d="M370.293 867.062c-7.638-4.274-8.651-23.4-3.012-56.822 1.936-11.47 1.837-21.356-.235-23.535-1.966-2.067-3.573-9.475-3.573-16.463 0-11.903-1.062-12.87-16.811-15.303-37.468-5.79-82.245-24.365-105.108-43.603l-12.292-10.343-14.97 10.148c-8.234 5.581-23.955 21.262-34.935 34.846-16.337 20.21-22.086 24.698-31.644 24.698-10.308 0-11.68-1.376-11.68-11.722 0-9.842 4.249-14.918 26.484-31.644 14.566-10.957 26.58-21.87 26.7-24.252.119-2.383 3.775-7.553 8.126-11.491 9.877-8.938 9.982-14.7.427-23.347-12.927-11.698-35.933-62.44-42.28-93.25-3.351-16.267-6.978-30.462-8.06-31.543-1.081-1.082-25.448-2.012-54.147-2.067l-52.18-.1v-23.734l52.18-.1c28.7-.055 53.066-.985 54.147-2.067 1.082-1.082 4.606-14.622 7.83-30.09 7.295-34.984 20.023-65.01 36.967-87.209 15.275-20.011 15.512-21.434 5.116-30.841-4.351-3.938-7.91-9.155-7.91-11.593 0-2.439-12.568-13.839-27.93-25.334-23.952-17.925-27.752-22.414-26.698-31.541 1.024-8.872 3.17-10.641 12.908-10.641 9.606 0 15.35 4.548 32.35 25.616 11.369 14.089 22.941 26.373 25.717 27.298 2.776.925 8.512 4.911 12.748 8.857 8.157 7.6 9.453 7.28 28.532-7.027 19.514-14.635 61.882-32.22 90.191-37.436 25.705-4.737 26.222-5.076 26.222-17.201 0-6.803 1.607-14.06 3.573-16.127 2.072-2.18 2.17-12.065.235-23.535-5.937-35.19-4.716-52.635 4.012-57.306 6.211-3.324 9.466-2.539 15.822 3.816 9.303 9.304 9.079 7.19 4.003 37.668-2.173 13.053-2.84 33.815-1.482 46.137l2.47 22.405 22.271 3.95c32.004 5.677 64.107 18.624 91.451 36.884l23.806 15.897 11.705-9.848c6.437-5.417 13.164-10.464 14.95-11.216 1.785-.752 11.744-12.492 22.132-26.089 19.666-25.742 31.867-31.187 42.14-18.808 6.84 8.242-2.8 22.084-27.98 40.174-10.85 7.795-25.127 22.02-31.727 31.614l-12 17.441 9.914 11.783c15.965 18.972 33.707 58.906 40.324 90.759 3.38 16.267 7.074 30.506 8.21 31.642 1.136 1.136 24.924 1.723 52.863 1.306 41.376-.62 51.727.36 55.808 5.277 3.619 4.36 3.854 7.868.848 12.628-3.535 5.597-11.956 6.598-55.86 6.644-28.435.032-52.605.96-53.711 2.067-1.108 1.108-4.778 15.323-8.158 31.59-6.605 31.796-24.354 71.78-40.247 90.668l-9.838 11.692 10.497 15.861c5.773 8.724 20.09 23.105 31.815 31.958 26.973 20.364 36.093 33.337 29.243 41.592-10.737 12.937-22.772 7.025-44.324-21.775-11.396-15.229-22.432-27.689-24.523-27.689-2.092 0-8.003-3.945-13.136-8.767-6.497-6.103-10.869-7.606-14.388-4.944-35.728 27.015-71.132 43.134-109.814 49.995l-22.271 3.95-2.47 22.404c-1.358 12.323-.702 33.084 1.459 46.136 2.16 13.052 2.938 26.849 1.729 30.659-3.121 9.834-14.285 14.958-22.531 10.343z" fill="#00b050"/><path d="M363.473 685.829c0-4.249 1.916-11.93 4.257-17.07 2.654-5.825 3.003-14.19.925-22.207-2.882-11.123-6.725-14.226-28.399-22.936-21.737-8.734-26.33-9.395-34.596-4.97-10.477 5.606-30.447 38.059-26.926 43.755 3.103 5.022 32.26 19.627 51.117 25.607 23.862 7.566 33.622 6.933 33.622-2.18zm78.417-4.693c9.582-4.107 22.42-11.026 28.528-15.376l11.105-7.907-10.1-18.07c-14.513-25.968-22.562-28.434-52.949-16.223-29.443 11.83-34.081 19.795-26.941 46.26 2.642 9.79 5.588 19.24 6.548 20.999 2.242 4.11 21.624-.174 43.809-9.683zm-175.721-57.199c10.12-5.656 20.761-15.001 23.647-20.766 4.693-9.378 4.06-13.077-6.013-35.122-13.11-28.69-20.432-32.22-50.736-24.453-22.612 5.796-24.185 10.249-13.908 39.378 4.655 13.194 25.513 51.203 28.118 51.24.27.005 8.771-4.62 18.892-10.277zm261.634-27.292c5.042-10.878 10.335-26.224 11.761-34.103 2.442-13.483 1.842-14.589-10.207-18.789-17.031-5.937-42.027-5.675-45.942.482-1.729 2.72-7.17 14.734-12.092 26.7-8.748 21.27-8.785 21.974-1.662 31.643 4.008 5.439 14.239 13.857 22.736 18.708 18.074 10.317 19.742 9.156 35.406-24.641zm-131.821 1.803c28.943-8.038 54.337-40.306 54.337-69.046 0-17.049-12.502-42.137-27.131-54.447-45.096-37.945-110.06-10.457-114.316 48.37-3.115 43.068 24.217 74.545 68.445 78.826 2.175.21 10.575-1.456 18.665-3.703zm-125.426-81.962c2.196-1.598 8.272-13.432 13.502-26.297 8.593-21.139 8.963-24.376 3.838-33.621-3.119-5.627-11.398-13.11-18.399-16.63-7-3.519-15.183-8.436-18.183-10.926-4.127-3.425-6.43-3.312-9.457.466-8.854 11.047-22.433 41.718-26.727 60.37l-4.554 19.777 12.172 4.472c14.17 5.206 42.025 6.598 47.808 2.389zm253.056-1.749c12.87-3.442 17.857-6.783 17.857-11.965 0-11.607-14.109-48.4-24.324-63.432l-9.436-13.887-15.474 8.663c-8.511 4.765-18.92 13.278-23.131 18.919-7.628 10.216-7.619 10.35 2.383 35.241 12.646 31.47 19.806 35.105 52.125 26.461zm-189.805-78.289c8.534-4.35 17.748-7.91 20.474-7.91 12.692 0 16.348-24.131 7.493-49.444-4.56-13.031-7.165-15.622-14.774-14.69-14.37 1.763-43.333 13.062-59.603 23.255l-14.766 9.25 8.267 15.86c8.381 16.079 24.5 31.59 32.828 31.59 2.51 0 11.546-3.56 20.08-7.91zm119.814 1.717c8.447-5.917 24.56-32.727 24.56-40.866 0-5.262-45.619-27.055-65.75-31.41l-16.307-3.527-5.144 21.444c-7.26 30.263-3.016 39.231 23.914 50.537 26.981 11.327 27.885 11.416 38.727 3.822z" fill="#fff"/></svg>