<svg xmlns="http://www.w3.org/2000/svg" width="210mm" height="297mm" viewBox="0 0 744.094 1052.362"><path d="M374.52 906.871c0-7.144-51.765-249.252-53.708-251.195-1.192-1.192-26.787 11.969-56.877 29.246-30.09 17.278-55.367 30.73-56.17 29.895-.804-.835 14.124-22.658 33.173-48.495 19.048-25.837 34.7-49.185 34.782-51.884.082-2.7-54.285-16.142-120.815-29.874S32.332 558.114 30.365 556.3c-1.965-1.812 50.883-14.538 117.442-28.28s123.467-26.297 126.463-27.9c3.594-1.923-5.597-21.904-27.011-58.722-17.852-30.694-32.459-56.63-32.459-57.635 0-1.005 23.488 15.241 52.197 36.103 28.708 20.862 53.005 37.122 53.993 36.134.987-.988 13.797-59.23 28.466-129.426 14.668-70.197 27.162-127.11 27.763-126.476.601.635 13.028 58.16 27.617 127.834 14.588 69.673 27.278 127.433 28.2 128.355.922.922 25.877-12.219 55.455-29.202 29.578-16.984 55.136-30.88 56.795-30.88 1.658 0-13.09 22.362-32.775 49.691-19.685 27.33-33.947 51.37-31.693 53.424 2.253 2.053 58.531 14.941 125.062 28.641 66.53 13.7 120.958 26.125 120.95 27.612 0 1.486-56.027 14.203-124.488 28.26-68.885 14.144-124.429 27.78-124.374 30.535.055 2.737 13.576 28.23 30.05 56.65 16.472 28.422 29.32 52.347 28.55 53.168-.769.82-23.927-14.734-51.462-34.567-27.536-19.833-50.927-35.197-51.98-34.143-1.055 1.054-13.585 57.625-27.846 125.713-21.96 104.846-30.76 140.801-30.76 125.681z" fill="#00b050"/></svg>