<svg xmlns="http://www.w3.org/2000/svg" width="210mm" height="297mm" viewBox="0 0 744.094 1052.362"><g fill="none"><path d="M-2128.572-1136.21h4434.283v2662.86h-4434.283z"/><path d="M-928.574-336.212h3314.286v3348.571H-928.574z"/></g><path fill="none" d="M86.8 368.277h437.144V705.42H86.8z"/><path d="M67.128 226.299c105.244-5.964 211.24 1.556 311.373-95.808 74.477 72.38 181.74 98.476 309.376 95.808l5.988 448.984c-57.996 99-156.333 184.01-315.364 247.975-121.56-40.163-227.054-117.05-311.373-242.339z" fill="#00b050" fill-rule="evenodd"/><path d="M197.14 523.039l41.916-31.936 87.823 58.236c68.922-71.707 141.536-139.07 231.534-185.98l23.951 20.664C480.1 480.457 401.877 576.892 352.827 673.326z" fill="#fff" fill-rule="evenodd"/><path fill="none" d="M249.663 454.263h97.896v117.519h-97.896z"/><path fill="none" d="M225.167 449.465h146.472v120.208H225.167z"/><path fill="none" d="M311.03 511.084h80.812v116.168H311.03z"/><path fill="none" d="M224.157 439.363h123.402v132.419H224.157z"/><path fill="none" d="M246.38 456.536h125.259v120.208h-125.26z"/><path fill="none" d="M244.36 439.363h130.31v150.513H244.36z"/><path fill="none" d="M257.744 473.708h76.772v3.03h-76.772z"/><path fill="none" d="M96.878 269.658H383.76v363.655H96.878zm290.924 381.837h82.833V754.53h-82.833z"/></svg>